# xmcd
#
# Track frame offsets: 
#        150
#        20554
#        36767
#        56900
#        70394
#        86788
#        113927
#        131237
#        151979
#        178586
#        194441
#
# Disc length: 2783 seconds
#
# Revision: 0
# Processed by: cddbd v1.5.2PL0 Copyright (c) Steve Scherf et al.
# Submitted via: ExactAudioCopy v1.3
#
DISCID=a10add0b
DTITLE=Philip Bölter - Excerpt
DYEAR=2018
DGENRE=Folk/Rock
TTITLE0=Excerpt
TTITLE1=The Twist
TTITLE2=Year Abroad
TTITLE3=Lucky Luke
TTITLE4=Sansula Blues
TTITLE5=There's A PLace
TTITLE6=Hey Child
TTITLE7=Night
TTITLE8=Feathers
TTITLE9=Green Mother
TTITLE10=Journey
EXTD=
EXTT0=
EXTT1=
EXTT2=
EXTT3=
EXTT4=
EXTT5=
EXTT6=
EXTT7=
EXTT8=
EXTT9=
EXTT10=
PLAYORDER=
